<?xml version="1.0" standalone="no"?>
<!DOCTYPE svg PUBLIC "-//W3C//DTD SVG 20010904//EN"
 "http://www.w3.org/TR/2001/REC-SVG-20010904/DTD/svg10.dtd">
<svg version="1.0" xmlns="http://www.w3.org/2000/svg"
 width="209.000000pt" height="209.000000pt" viewBox="0 0 209.000000 209.000000"
 preserveAspectRatio="xMidYMid meet">
<metadata>
Created by potrace 1.11, written by Peter Selinger 2001-2013
</metadata>
<g transform="translate(0.000000,209.000000) scale(0.100000,-0.100000)"
fill="#000000" stroke="none">
<path d="M1075 1671 c-164 -47 -290 -172 -337 -336 -61 -209 42 -448 238 -552
181 -97 412 -65 555 77 105 104 150 208 150 345 1 165 -75 308 -214 404 -102
70 -271 97 -392 62z m234 -122 c115 -37 204 -131 237 -251 45 -164 -35 -333
-196 -415 -48 -24 -67 -28 -145 -28 -82 0 -96 3 -157 33 -198 97 -264 341
-140 520 52 77 148 139 237 155 35 6 127 -2 164 -14z"/>
<path d="M1365 1472 c-49 -10 -68 -62 -35 -97 37 -39 100 -18 100 34 0 41 -31
71 -65 63z"/>
<path d="M979 1330 c-6 -4 -8 -79 -7 -196 l3 -189 50 0 50 0 3 63 c3 62 8 72
29 51 17 -17 88 -15 117 4 14 10 33 31 42 48 20 40 20 128 0 168 -29 55 -115
79 -164 45 -18 -12 -22 -13 -22 -1 0 10 -13 14 -45 13 -25 0 -50 -3 -56 -6z
m184 -104 c4 -6 6 -24 5 -41 -4 -36 -46 -57 -72 -35 -22 17 -21 76 2 89 19 11
53 5 65 -13z"/>
<path d="M1320 1192 l0 -143 53 3 52 3 0 140 0 139 -52 1 -53 1 0 -144z"/>
<path d="M527 1452 c-48 -53 18 -126 78 -86 29 19 34 64 9 88 -21 22 -67 20
-87 -2z"/>
<path d="M90 1378 c0 -21 -4 -39 -10 -39 -5 -1 -16 -2 -22 -3 -8 -1 -14 -19
-14 -48 -2 -44 0 -48 21 -48 23 0 24 -3 23 -71 -1 -62 2 -74 23 -94 13 -13 39
-26 57 -29 44 -6 95 12 88 31 -3 8 -6 23 -6 34 0 12 -10 23 -25 29 -14 5 -25
13 -26 17 -1 5 -2 24 -3 43 -1 31 2 35 29 40 17 3 29 9 28 13 -2 4 -3 25 -3
47 0 27 -4 40 -12 39 -39 -5 -46 1 -43 36 1 20 -3 35 -9 36 -6 0 -30 2 -54 2
l-42 2 0 -37z"/>
<path d="M290 1194 l0 -143 53 0 54 0 1 84 c0 46 3 89 7 95 3 5 22 10 41 10
20 0 34 5 35 13 3 39 1 79 -5 84 -4 4 -21 2 -38 -5 -17 -6 -36 -8 -42 -4 -6 3
-32 7 -58 8 l-48 1 0 -143z"/>
<path d="M515 1195 l0 -142 52 -1 c43 0 53 3 54 16 4 70 0 255 -6 260 -4 4
-28 8 -54 8 l-47 1 1 -142z"/>
<path d="M1657 887 c-20 -31 -84 -96 -125 -128 l-32 -25 164 -162 c163 -161
170 -167 235 -164 53 3 103 59 103 116 0 51 -26 85 -186 244 -143 142 -144
142 -159 119z"/>
</g>
</svg>
